<?xml version="1.0" encoding="UTF-8"?>
<svg width="100" height="100" viewBox="0 0 100 100" xmlns="http://www.w3.org/2000/svg">
  <path d="M50 5 L95 25 L95 50 C95 75 75 90 50 95 C25 90 5 75 5 50 L5 25 Z" fill="#3498db" stroke="#2980b9" stroke-width="3"/>
  <path d="M50 15 L85 30 L85 50 C85 70 70 80 50 85 C30 80 15 70 15 50 L15 30 Z" fill="#2980b9"/>
  <path d="M50 25 L75 37 L75 50 C75 65 65 75 50 77 C35 75 25 65 25 50 L25 37 Z" fill="#3498db"/>
  <path d="M45 45 L37 50 L45 55 L55 55 L63 50 L55 45 Z" fill="white"/>
  <path d="M50 40 L55 45 L55 55 L50 60 L45 55 L45 45 Z" fill="white"/>
</svg> 